# xmcd
#
# Track frame offsets: 
#        150
#        15932
#        32372
#        50449
#        69007
#        86755
#        97887
#        108117
#        120196
#        133665
#        144393
#        156106
#        166301
#        183415
#        196925
#
# Disc length: 2886 seconds
#
# Revision: 4
# Processed by: cddbd v1.5.1PL0 Copyright (c) Steve Scherf et al.
# Submitted via: ExactAudioCopy v0.95a5
#
DISCID=aa0b440f
DTITLE=Various Artist - House Rent Party
DYEAR=1998
DGENRE=Blues
TTITLE0=Lou Ann Barton - Finger Poppin' Time
TTITLE1=The Fabulous Thunderbirds - Tip on In
TTITLE2=Luther "Guitar Junior" Johnson and The Magic Rockers - Doin' the
TTITLE2=Sugar Too
TTITLE3=Preston Shannon - Beale Street Boogaloo
TTITLE4=Luther Allison - It's Partyin' Time
TTITLE5=Amos Milburn - House Party (Tonite)
TTITLE6=Elmore James - Talk to Me Baby
TTITLE7=Floyd Dixon - Let's Dance
TTITLE8=Champion Jack Dupree - House Rent Party
TTITLE9=John Lee Hooker - Old Time Shimmy
TTITLE10=Hal Singer - Rent Party
TTITLE11=Professor Longhair - Whole Lotta Twistin'
TTITLE12=Memphis Slim - Chicago House Rent Party Blues
TTITLE13=Little Walter - Boogie
TTITLE14=Gary Primich - House Rockin' Party
EXTD=
EXTT0=Lou Ann Barton
EXTT1=The Fabulous Thunderbirds\n
EXTT2=Luther "Guitar Junior" Johnson and The Magic Rockers
EXTT3=The Preston Shannon Band
EXTT4=Luther Allison
EXTT5=Amos Milburn
EXTT6=Elmore James
EXTT7=Floyd Dixon
EXTT8=Champion Jack Dupree
EXTT9=John Lee Hooker
EXTT10=Hal Singer
EXTT11=Professor Longhair
EXTT12=Memphis Slim
EXTT13=Little Walter
EXTT14=Gary Primich
PLAYORDER=
